<?xml version="1.0" standalone="no"?>
<!DOCTYPE svg PUBLIC "-//W3C//DTD SVG 20010904//EN"
 "http://www.w3.org/TR/2001/REC-SVG-20010904/DTD/svg10.dtd">
<svg version="1.0" xmlns="http://www.w3.org/2000/svg"
 width="576.000000pt" height="576.000000pt" viewBox="0 0 576.000000 576.000000"
 preserveAspectRatio="xMidYMid meet">
<metadata>
Created by potrace 1.14, written by Peter Selinger 2001-2017
</metadata>
<g transform="translate(0.000000,576.000000) scale(0.100000,-0.100000)"
fill="#000000" stroke="none">
<path d="M3585 5431 c-30 -13 -57 -47 -61 -78 -2 -16 -4 -86 -3 -158 0 -71 0
-134 0 -140 0 -5 -1 -43 -3 -83 -2 -39 1 -72 5 -72 5 0 6 -4 2 -9 -3 -6 -5
-63 -5 -128 0 -65 0 -134 -1 -153 -1 -19 -1 -42 0 -50 3 -45 0 -144 -5 -152
-3 -4 -1 -8 4 -8 4 0 6 -23 2 -50 -4 -28 -5 -52 -3 -53 1 -2 5 -71 7 -153 4
-160 23 -248 81 -379 117 -264 372 -473 660 -540 54 -12 204 -28 250 -26 36 1
124 12 145 18 14 3 32 7 42 7 9 1 20 4 24 9 4 4 14 7 23 7 35 1 186 72 264
124 140 94 253 222 326 371 34 69 60 135 67 170 1 6 8 33 14 60 10 40 23 217
21 273 0 14 -1 75 0 95 0 6 0 68 -1 137 0 69 0 127 0 130 4 19 4 120 0 120 -3
0 -4 28 -2 62 1 35 2 78 2 96 0 17 -1 40 -1 50 1 9 0 37 0 62 0 25 0 50 0 55
0 6 0 42 0 80 0 82 0 97 1 149 3 108 -29 158 -102 162 -51 3 -65 -7 -133 -96
-27 -36 -53 -66 -57 -68 -4 -2 -8 -8 -8 -13 0 -10 -101 -142 -112 -147 -5 -2
-8 -7 -8 -12 0 -7 -188 -261 -211 -284 -10 -11 -109 -26 -109 -17 0 3 -33 5
-72 3 -108 -4 -250 -2 -260 4 -4 3 -8 2 -8 -3 0 -4 -27 -8 -60 -8 -33 0 -60 2
-60 5 0 3 -18 4 -39 2 l-39 -4 -119 159 c-65 87 -121 160 -125 161 -5 2 -8 10
-8 17 0 7 -4 15 -8 17 -5 2 -52 62 -106 133 -54 72 -107 135 -119 142 -25 14
-63 15 -92 4z m654 -1131 c11 -5 33 -27 48 -47 23 -30 28 -46 28 -93 0 -100
-68 -162 -169 -155 -78 5 -133 58 -142 136 -11 103 68 186 168 175 26 -3 56
-10 67 -16z m650 -7 c43 -33 63 -68 66 -119 7 -98 -52 -164 -150 -170 -49 -3
-59 1 -97 29 -97 74 -82 224 25 272 42 18 123 12 156 -12z"/>
<path d="M555 4469 c-48 -14 -108 -50 -140 -85 -52 -58 -56 -63 -75 -120 -21
-59 -21 -173 -2 -211 5 -10 16 -31 23 -46 20 -44 82 -103 135 -130 44 -22 73
-29 179 -43 112 -15 211 -88 257 -189 18 -40 23 -73 26 -165 2 -63 3 -131 2
-150 -1 -19 -2 -42 -1 -50 3 -45 0 -144 -5 -152 -3 -4 -1 -8 4 -8 4 0 6 -23 2
-50 -4 -28 -5 -52 -2 -54 4 -4 4 -157 -1 -284 -1 -39 2 -72 6 -72 5 0 5 -5 2
-10 -8 -12 -9 -236 -1 -248 2 -4 1 -14 -3 -20 -4 -7 -5 -33 -1 -57 4 -25 5
-47 2 -49 -6 -7 -8 -116 -2 -116 3 0 5 -27 5 -60 0 -33 -2 -60 -5 -60 -3 0 -3
-54 0 -121 3 -66 3 -122 1 -124 -5 -6 -7 -115 -1 -115 3 0 4 -28 2 -62 -1 -35
-2 -78 -2 -95 1 -36 1 -47 0 -108 -1 -126 11 -298 25 -350 8 -33 17 -67 20
-75 2 -8 4 -16 5 -17 2 -2 3 -6 5 -10 31 -112 148 -290 253 -387 129 -118 286
-199 462 -236 78 -17 153 -18 879 -19 775 -1 796 -1 855 19 72 24 143 84 177
150 31 58 33 71 33 160 -1 85 -22 141 -76 201 -63 70 -116 95 -218 105 -30 3
-60 7 -67 9 -7 2 -15 0 -18 -6 -4 -5 -10 -7 -15 -4 -5 3 -30 5 -57 5 -26 0
-57 0 -68 0 -11 0 -38 0 -60 -1 -22 0 -47 0 -55 0 -8 0 -63 1 -122 1 -60 1
-108 3 -108 4 0 4 55 48 235 192 55 43 106 85 113 91 7 7 41 34 75 60 34 26
64 50 67 53 3 3 39 32 80 65 41 32 80 64 87 70 15 12 25 20 83 65 25 19 47 37
50 40 3 3 25 21 50 40 64 50 62 48 95 76 17 14 57 46 90 72 33 25 62 49 65 52
3 3 33 27 67 53 34 26 68 53 75 60 7 6 35 30 62 51 37 30 50 36 56 25 5 -7 6
-17 3 -22 -3 -5 -5 -39 -3 -76 1 -36 2 -70 1 -76 -5 -109 -5 -155 2 -155 5 0
6 -4 2 -9 -3 -6 -5 -63 -5 -128 0 -65 0 -134 -1 -153 -1 -19 -1 -42 0 -50 3
-45 0 -144 -5 -152 -3 -4 -1 -8 4 -8 4 0 6 -23 2 -50 -4 -28 -5 -52 -2 -54 4
-4 4 -157 -1 -284 -1 -39 2 -72 6 -72 5 0 6 -4 3 -8 -8 -14 -9 -94 -2 -141 16
-101 88 -195 182 -241 39 -19 66 -24 134 -24 75 -1 92 2 140 28 75 39 135 107
160 181 11 33 20 72 19 85 0 14 0 58 1 98 0 40 -1 76 -4 80 -3 4 -1 14 3 20 4
7 5 33 1 57 -4 25 -5 47 -2 49 6 7 8 116 2 116 -3 0 -5 27 -5 60 0 33 2 60 5
60 3 0 4 46 3 102 -2 111 -3 180 -4 242 0 21 0 42 -1 45 0 3 0 8 1 11 5 13 5
120 1 120 -3 0 -5 27 -5 60 0 33 2 60 5 60 3 0 4 46 3 102 -2 111 -3 180 -4
242 0 21 0 42 -1 45 0 3 0 8 1 11 5 13 5 120 1 120 -3 0 -5 27 -5 60 0 33 2
60 5 60 6 0 3 248 -4 273 -2 9 -1 17 2 17 4 0 7 23 7 50 0 28 -2 50 -5 50 -3
0 -4 20 -2 44 l4 44 -44 -8 c-23 -5 -61 -11 -83 -15 -59 -11 -307 -14 -357 -5
-24 5 -59 10 -78 13 -88 13 -314 90 -340 117 -3 3 -18 11 -34 18 -37 16 -166
103 -207 139 -99 86 -169 165 -239 267 -51 73 -54 76 -94 77 -23 1 -44 1 -47
1 -3 -1 -71 -3 -150 -6 -79 -3 -155 -8 -169 -11 -14 -3 -40 -7 -59 -10 -87
-12 -113 -17 -211 -45 -144 -42 -130 -37 -240 -83 -66 -28 -174 -83 -250 -128
-33 -19 -188 -129 -225 -159 -101 -83 -305 -307 -362 -396 -10 -16 -12 -10
-14 41 -1 33 -1 64 0 69 1 5 2 62 1 125 -1 64 0 132 1 151 0 19 1 42 0 50 -3
45 0 144 5 152 3 4 1 8 -4 8 -4 0 -6 23 -2 50 4 28 5 52 3 53 -2 2 -5 66 -7
143 -3 123 -14 206 -34 254 -3 8 -7 20 -8 25 -5 26 -19 62 -50 125 -110 231
-314 412 -554 493 -41 14 -91 28 -110 31 -19 3 -46 9 -60 12 -46 10 -195 12
-225 3z"/>
</g>
</svg>
